<?xml version="1.0" encoding="UTF-8"?>
<svg width="48px" height="48px" viewBox="0 0 48 48" version="1.1" xmlns="http://www.w3.org/2000/svg" xmlns:xlink="http://www.w3.org/1999/xlink">
    <title>icon_delete</title>
    <defs>
        <filter id="filter-1">
            <feColorMatrix in="SourceGraphic" type="matrix" values="0 0 0 0 0.929412 0 0 0 0 0.149020 0 0 0 0 0.282353 0 0 0 1.000000 0"></feColorMatrix>
        </filter>
    </defs>
    <g id="è¿›è´§å•" stroke="none" stroke-width="1" fill="none" fill-rule="evenodd">
        <g id="è¿›è´§å•--ç¼–è¾‘çŠ¶æ€" transform="translate(-654.000000, -613.000000)">
            <g id="-mockplus-" transform="translate(24.000000, 152.000000)">
                <g id="-mockplus-" transform="translate(0.000000, 435.000000)">
                    <g id="æ¨¡å—ðŸš/è¿›è´§å•/ç»„ä»¶/skué€‰æ‹©/é»˜è®¤" transform="translate(24.000000, 0.000000)">
                        <g id="-mockplus-" transform="translate(606.000000, 26.000000)">
                            <g id="icon/delete" transform="translate(0.000000, -0.000000)">
                                <rect id="çŸ©å½¢" x="0" y="0" width="48" height="48"></rect>
                                <g filter="url(#filter-1)" id="åˆ é™¤">
                                    <g>
                                        <rect id="çŸ©å½¢" fill="#000000" fill-rule="nonzero" opacity="0" x="0" y="0" width="48" height="48"></rect>
                                        <path d="M12.365625,14.4314062 L12.065625,14.4314062 C12.115625,14.4014062 12.165625,14.4014062 12.215625,14.4014062 C12.265625,14.4014062 12.315625,14.4014062 12.365625,14.4314062 L12.365625,14.4314062 Z" id="è·¯å¾„" fill="#1A1A1A" fill-rule="nonzero"></path>
                                        <path d="M27.628125,16.8 C27.628125,17.5125 28.2046875,18.0890625 28.9125,18.0890625 L30.121875,18.0890625 C30.834375,18.0890625 31.4109375,17.5125 31.4109375,16.8046875 C31.4109375,16.0921875 30.834375,15.5203125 30.121875,15.5203125 L28.9125,15.5203125 C28.2046875,15.515625 27.628125,16.0921875 27.628125,16.8 L27.628125,16.8 Z M28.8890625,39.8625 C29.6015625,39.890625 30.196875,39.3328125 30.2203125,38.625 L30.2625,22.171875 C30.290625,21.459375 29.7328125,20.8640625 29.025,20.840625 C28.3125,20.8125 27.7171875,21.3703125 27.69375,22.078125 L27.6515625,38.53125 C27.6234375,39.2390625 28.18125,39.8390625 28.8890625,39.8625 Z M21.4265625,38.53125 L21.384375,22.078125 C21.35625,21.365625 20.7609375,20.8125 20.053125,20.840625 C19.3453125,20.86875 18.7875,21.4640625 18.815625,22.171875 L18.8578125,38.625 C18.8859375,39.3328125 19.48125,39.890625 20.1890625,39.8625 C20.896875,39.8390625 21.4546875,39.2390625 21.4265625,38.53125 Z" id="å½¢çŠ¶" fill="#1A1A1A" fill-rule="nonzero"></path>
                                        <path d="M38.7421875,16.7953125 L38.6625,18.0890625 L37.3546875,41.6390625 L37.3359375,41.9625 C37.3359375,43.1109375 36.4171875,44.04375 35.278125,44.071875 L12.7546875,44.071875 C11.615625,44.04375 10.696875,43.10625 10.696875,41.9625 L10.678125,41.64375 L9.375,18.0890625 L9.2953125,16.7953125 L9.2953125,16.78125 C9.3046875,16.115625 9.815625,15.571875 10.471875,15.515625 L24.28125,15.515625 C24.99375,15.515625 25.5703125,16.0921875 25.5703125,16.8 C25.5703125,17.5125 24.99375,18.084375 24.28125,18.084375 L11.953125,18.084375 L13.0078125,37.10625 L13.2375,40.8234375 L13.2609375,41.19375 L13.2796875,41.5078125 L34.7671875,41.5078125 L34.7859375,41.19375 L34.809375,40.8234375 L35.0390625,37.10625 L36.09375,18.084375 L34.7671875,18.084375 C34.0546875,18.084375 33.4828125,17.5078125 33.4828125,16.8 C33.4828125,16.0875 34.059375,15.515625 34.7671875,15.515625 L37.5703125,15.515625 C38.2265625,15.571875 38.7421875,16.1203125 38.746875,16.7859375 C38.7421875,16.790625 38.7421875,16.790625 38.7421875,16.7953125 Z M22.275,6.7125 L22.059375,5.446875 C21.9421875,4.7484375 22.4109375,4.0828125 23.1140625,3.9609375 C23.8125,3.84375 24.478125,4.3125 24.6,5.015625 L24.815625,6.28125 C24.9328125,6.9796875 24.4640625,7.6453125 23.7609375,7.7671875 C23.0578125,7.884375 22.3921875,7.415625 22.275,6.7125 Z" id="å½¢çŠ¶" fill="#1A1A1A" fill-rule="nonzero"></path>
                                        <path d="M37.153125,7.05 L10.8796875,11.521875 C10.18125,11.6390625 9.515625,11.1703125 9.39375,10.4671875 C9.2765625,9.76875 9.7453125,9.103125 10.4484375,8.98125 L36.721875,4.509375 C37.4203125,4.3921875 38.0859375,4.8609375 38.2078125,5.5640625 C38.325,6.2625 37.85625,6.928125 37.153125,7.05 Z" id="è·¯å¾„" fill="#1A1A1A" fill-rule="nonzero"></path>
                                    </g>
                                </g>
                            </g>
                        </g>
                    </g>
                </g>
            </g>
        </g>
    </g>
</svg>