<?xml version="1.0" encoding="UTF-8"?>
<svg width="40px" height="40px" viewBox="0 0 40 40" version="1.1" xmlns="http://www.w3.org/2000/svg" xmlns:xlink="http://www.w3.org/1999/xlink">
    <title>icon/Position备份 2</title>
    <g id="页面-1" stroke="none" stroke-width="1" fill="none" fill-rule="evenodd">
        <g id="云档口-首页" transform="translate(-48.000000, -1842.000000)" fill-rule="nonzero">
            <g id="icon/Position备份-4" transform="translate(48.000000, 1842.000000)">
                <g id="icon/Position备份-2" transform="translate(1.370002, 4.713444)">
                    <path d="M24.4894787,0.00211653177 L17.0222631,0.292894105 C16.4909659,0.204045402 15.9513672,0.373665653 15.5694974,0.741176198 L1.14560951,14.7752327 C-0.381869837,16.2614292 -0.381869837,18.6724599 1.14560951,20.1586564 L6.54989786,25.4168842 C8.07737721,26.9030807 10.5553804,26.9030807 12.0828597,25.4168842 L26.5025969,11.3868662 C26.8844667,11.0153171 27.0546478,10.4903021 26.9633311,9.97336415 L27.2663365,2.70392482 C27.3285979,1.18945829 26.0501641,-0.0584621294 24.4894787,0.00211653177 Z M24.5973984,6.02767403 C23.5721609,7.6592593 21.193776,7.6592593 20.1685385,6.02767403 C19.6870504,5.26034432 19.6870504,4.24666139 20.1685385,3.47933168 C21.193776,1.84774641 23.5721609,1.84774641 24.5973984,3.47933168 C25.0788865,4.24666139 25.0788865,5.26034432 24.5973984,6.02767403 Z" id="形状结合备份" fill="#EDE1FA"></path>
                    <path d="M22.4200716,25.3361392 L32.7519215,13.8535942 L32.7519215,13.8535942 C33.1337914,13.4820451 33.3039725,12.95703 33.2126558,12.4400921 L33.5156612,5.1706528 L18.3304274,21.5812526 C17.2859457,22.7100183 17.3542713,24.4717835 18.4830371,25.5162652 C18.4856985,25.5187279 18.4883647,25.5211854 18.4910357,25.5236376 C19.6169563,26.5573514 21.3676859,26.4826031 22.4013997,25.3566825 C22.4076579,25.349866 22.413882,25.3430181 22.4200716,25.3361392 Z" id="路径备份" fill="#EDE1FA"></path>
                    <path d="M26.3753305,1.8886445 C27.8579816,1.83109477 29.0859007,2.95446546 29.1516046,4.36541215 L29.1521883,4.59045279 L28.8491829,11.8598921 C28.929085,12.3122128 28.8087779,12.7707175 28.5216297,13.1271851 L28.3884487,13.2733942 L13.9786959,27.5902859 C12.5239536,29.0057112 10.2070583,29.0731124 8.6702062,27.7924896 L8.44573399,27.5902859 L3.03146131,22.0451843 C1.57341284,20.6265422 1.50713791,18.3652309 2.83263652,16.8699826 L3.03146131,16.6617607 L17.4553492,2.62770417 C17.7894853,2.30613244 18.2443825,2.13607047 18.7088136,2.15810122 L18.9081149,2.17942207 L26.3753305,1.8886445 Z M26.4726082,4.38675119 L19.0053926,4.67752877 L18.9333311,4.67488887 L4.77484893,18.4535753 C4.29940799,18.9161666 4.25978791,19.6189591 4.69092346,20.1564572 L4.82020376,20.2986448 L10.1891216,25.7984713 C10.699708,26.2952582 11.525547,26.3366571 12.0743058,25.9367964 L12.2166526,25.8168138 L26.3499978,11.7748889 L26.6543295,4.48776178 C26.6559802,4.44685191 26.5896103,4.38220973 26.4726082,4.38675119 Z" id="路径" fill="#795C98"></path>
                    <path d="M23.0266229,11.2475353 C22.0013854,12.8791206 19.6230004,12.8791206 18.5977629,11.2475353 C18.1162749,10.4802056 18.1162749,9.46652269 18.5977629,8.69919298 C19.6230004,7.06760771 22.0013854,7.06760771 23.0266229,8.69919298 C23.508111,9.46652269 23.508111,10.4802056 23.0266229,11.2475353 Z" id="路径" fill="#795C98"></path>
                    <path d="M34.1708206,5.00820391 C34.8030979,5.03455855 35.3060519,5.52618753 35.3633415,6.1392312 L35.3676788,6.30917686 L35.0683311,13.4748889 L35.0818081,13.5872044 C35.1384133,14.3283272 34.9012276,15.0592608 34.4266008,15.6222945 L34.2375957,15.8252538 L21.726404,28.2994045 C21.2375254,28.7868357 20.4460701,28.7856623 19.9586389,28.2967838 C19.5155197,27.8523488 19.4762059,27.1578503 19.8400217,26.6690366 L19.9612597,26.5290188 L32.4833297,14.0441536 C32.547429,13.9817867 32.583271,13.9053057 32.5890816,13.8250857 L32.5668423,13.4745014 L32.8698477,6.20506204 C32.8985982,5.51530504 33.4810636,4.9794534 34.1708206,5.00820391 Z" id="路径" fill="#795C98"></path>
                </g>
            </g>
        </g>
    </g>
</svg>