<?xml version="1.0" encoding="UTF-8"?>
<svg width="22px" height="22px" viewBox="0 0 22 22" version="1.1" xmlns="http://www.w3.org/2000/svg" xmlns:xlink="http://www.w3.org/1999/xlink">
    <title>an</title>
    <g id="我的-采购" stroke="none" stroke-width="1" fill="none" fill-rule="evenodd">
        <g id="订单详情-供应商已发货" transform="translate(-364.000000, -931.000000)" fill="#BBBBBB" fill-rule="nonzero">
            <g id="-mockplus-" transform="translate(24.000000, 316.000000)">
                <g id="-mockplus-" transform="translate(340.000000, 615.000000)">
                    <g id="路径" transform="translate(0.000000, 2.000000)">
                        <path d="M11,12 C10.7461538,12 10.5769231,11.9142857 10.4076923,11.7428571 L0.253846154,1.45714286 C-0.0846153846,1.11428571 -0.0846153846,0.6 0.253846154,0.257142857 C0.592307692,-0.0857142857 1.1,-0.0857142857 1.43846154,0.257142857 L11,9.94285714 L20.5615385,0.257142857 C20.9,-0.0857142857 21.4076923,-0.0857142857 21.7461538,0.257142857 C22.0846154,0.6 22.0846154,1.11428571 21.7461538,1.45714286 L11.5923077,11.7428571 C11.4230769,11.9142857 11.2538462,12 11,12 Z"></path>
                        <path d="M11,19 C10.7461538,19 10.5769231,18.9142857 10.4076923,18.7428571 L0.253846154,8.45714286 C-0.0846153846,8.11428571 -0.0846153846,7.6 0.253846154,7.25714286 C0.592307692,6.91428571 1.1,6.91428571 1.43846154,7.25714286 L11,16.9428571 L20.5615385,7.25714286 C20.9,6.91428571 21.4076923,6.91428571 21.7461538,7.25714286 C22.0846154,7.6 22.0846154,8.11428571 21.7461538,8.45714286 L11.5923077,18.7428571 C11.4230769,18.9142857 11.2538462,19 11,19 L11,19 Z"></path>
                    </g>
                </g>
            </g>
        </g>
    </g>
</svg>