<?xml version="1.0" encoding="UTF-8"?>
<svg width="165px" height="52px" viewBox="0 0 165 52" version="1.1" xmlns="http://www.w3.org/2000/svg" xmlns:xlink="http://www.w3.org/1999/xlink">
    <title>客服</title>
    <defs>
        <filter x="-9.7%" y="-30.8%" width="119.4%" height="161.5%" filterUnits="objectBoundingBox" id="filter-1">
            <feOffset dx="0" dy="2" in="SourceAlpha" result="shadowOffsetOuter1"></feOffset>
            <feGaussianBlur stdDeviation="3" in="shadowOffsetOuter1" result="shadowBlurOuter1"></feGaussianBlur>
            <feColorMatrix values="0 0 0 0 0   0 0 0 0 0   0 0 0 0 0  0 0 0 0.091513467 0" type="matrix" in="shadowBlurOuter1" result="shadowMatrixOuter1"></feColorMatrix>
            <feMerge>
                <feMergeNode in="shadowMatrixOuter1"></feMergeNode>
                <feMergeNode in="SourceGraphic"></feMergeNode>
            </feMerge>
        </filter>
        <filter color-interpolation-filters="auto" id="filter-2">
            <feColorMatrix in="SourceGraphic" type="matrix" values="0 0 0 0 0.474510 0 0 0 0 0.360784 0 0 0 0 0.596078 0 0 0 1.000000 0"></feColorMatrix>
        </filter>
        <polygon id="path-3" points="0 0 5.56768903 0 5.56768903 6.5704875 0 6.5704875"></polygon>
        <filter color-interpolation-filters="auto" id="filter-5">
            <feColorMatrix in="SourceGraphic" type="matrix" values="0 0 0 0 0.474510 0 0 0 0 0.360784 0 0 0 0 0.596078 0 0 0 1.000000 0"></feColorMatrix>
        </filter>
    </defs>
    <g id="消息" stroke="none" stroke-width="1" fill="none" fill-rule="evenodd">
        <g id="消息-会话消息-客服悬浮窗" transform="translate(-561.000000, -786.000000)">
            <g id="客服" transform="translate(561.000000, 786.000000)" filter="url(#filter-1)">
                <g id="编组-3">
                    <rect id="矩形" fill="#FFFFFF" x="0" y="0" width="165" height="52" rx="8"></rect>
                    <g filter="url(#filter-2)" id="编组">
                        <g transform="translate(16.000000, 17.000000)">
                            <path d="M10.834198,14.094375 C10.1154696,14.956875 9.10527418,15.47325 7.97694091,15.47325 L4.78352922,15.47325 L4.78352922,15.47325 L3.85043589,15.47325 C3.34607231,15.47325 2.93725809,15.063 2.93725809,14.55675 L2.93725809,13.254 L2.93725809,4.74555 L2.93725809,3.4415625 C2.93725809,3.2832 2.97708914,3.1353375 3.04745232,3.0048 C3.15361828,2.8089 3.33014741,2.6558625 3.54119931,2.579775 C3.63806633,2.5439625 3.74159696,2.525325 3.85043589,2.525325 L4.78352922,2.525325 L4.78352922,2.5238625 L7.97694091,2.5238625 C9.51529312,2.5238625 10.8425558,3.422925 11.4676926,4.7255625 C11.4955894,4.782825 11.5208132,4.840125 11.5459994,4.8987 C11.5659149,4.9426875 11.5858304,4.9866375 11.6044283,5.03325 C12.0781092,6.221475 12.3758256,7.6092375 12.4023671,8.9984625 C12.4376804,10.851375 11.9902399,12.706875 10.834198,14.094375 Z M14.1183026,3.7252875 C13.8674196,3.2870625 13.5767433,2.88615 13.2462735,2.5238625 C13.217059,2.4905625 13.1852092,2.4572625 13.1546771,2.4239625 C12.8958505,2.1469125 12.6184637,1.893825 12.3198061,1.6660875 C12.1631925,1.54485 12.0012706,1.4316375 11.8327227,1.3251 C11.7756491,1.2877875 11.7185755,1.251825 11.6588289,1.2172125 C10.6076354,0.587175 9.34538995,0.2035875 7.86414899,0.06375 C7.86015835,0.06375 7.85616772,0.06375 7.85217708,0.0624 C7.57878093,0.0331125 7.3027118,0.0157875 7.02396969,0.0078 C7.02265203,0.00645 7.01997906,0.0051375 7.0186614,0.0051375 L6.76646078,0.0051375 L2.12365793,0.0051375 C1.4307933,0.0051375 0.81495547,0.3381 0.42872975,0.853575 C0.15928658,1.209225 0,1.6540875 0,2.1362625 L0,15.860625 C0,16.188375 0.0743161684,16.5 0.205743597,16.777125 C0.546829963,17.494875 1.27670208,17.99175 2.12339439,17.99175 C2.19345639,17.992125 2.26340545,17.99175 2.3335051,17.99175 C2.35300651,17.992875 2.37371263,17.99325 2.3931011,17.99325 C2.41380722,17.99325 2.43330863,17.992875 2.45401475,17.99175 C3.89147166,17.992125 5.32889093,17.99175 6.76646078,17.99175 L6.99343757,17.99175 C6.99475523,17.99175 6.99742821,17.990625 6.99874587,17.989125 C7.2867869,17.982375 7.57079966,17.964 7.85217708,17.934375 C7.85616772,17.93325 7.86015835,17.93325 7.86414899,17.93325 C9.33078272,17.7945 10.5824116,17.417625 11.6269791,16.7985 C11.6973423,16.758375 11.7650325,16.716 11.8327227,16.672125 C12.0012706,16.56525 12.1631925,16.452 12.3198061,16.330875 C12.6184637,16.10325 12.8958505,15.850125 13.1546771,15.5745 C13.1852092,15.541125 13.217059,15.50775 13.2462735,15.47325 C13.3882799,15.314625 13.5236603,15.14925 13.6497418,14.9775 C13.6524147,14.974875 13.6550501,14.971125 13.657723,14.967 C14.7168978,13.53225 15.2730267,11.63025 15.3101848,9.2635125 C15.3115025,9.1756125 15.3128202,9.0877125 15.3128202,8.9984625 C15.3128202,8.9092125 15.3115025,8.82 15.3101848,8.73075 C15.278335,6.7181625 14.8775021,5.049225 14.1183026,3.7252875 Z" id="形状" fill="#FFFFFF"></path>
                            <g id="Clipped" transform="translate(16.882646, 0.000000)">
                                <mask id="mask-4" fill="white">
                                    <use xlink:href="#path-3"></use>
                                </mask>
                                <g id="路径"></g>
                                <path d="M5.41521665,4.4300625 C5.38208685,4.3634625 5.34481582,4.299525 5.30114472,4.2382875 L5.26537959,4.188975 L5.12984859,4.002525 L5.12721326,3.9998625 L2.704973,0.654 L2.66092542,0.591375 C2.39023989,0.2331 1.96181132,0 1.47879387,0 C0.66109013,0 0,0.66465 0,1.4838 C0,1.7914875 0.0929893293,2.076525 0.252238262,2.3136 L0.298544689,2.37885 L0.300050589,2.3802 L0.305321239,2.386875 L2.86309251,5.916525 L2.90563418,5.9751375 C3.17631972,6.3361125 3.60625419,6.570525 4.08927164,6.570525 C4.59111284,6.570525 5.03460041,6.3201 5.30114472,5.9365125 L5.3226038,5.905875 L5.3331451,5.8899 C5.48147625,5.6594625 5.56768903,5.3824125 5.56768903,5.086725 C5.56768903,4.8523125 5.51347663,4.6298625 5.41672255,4.432725 L5.41521665,4.4300625 Z" id="路径" fill="#FFFFFF" mask="url(#mask-4)"></path>
                            </g>
                            <path d="M30.5200767,0.012075 C30.0359298,0.012075 29.6056189,0.246525 29.3349334,0.6074625 L29.3123449,0.6407625 L29.2780856,0.6913875 L29.2551206,0.726 L25.8243038,5.8287375 L25.8243038,5.83005 L24.6256074,7.6122 L23.1310015,9.836625 L23.1193308,9.853875 L23.0978717,9.88575 L23.0805539,9.913875 C23.0078942,10.033875 22.9517994,10.162875 22.9160343,10.300125 C22.8829045,10.42275 22.8655867,10.550625 22.8655867,10.68375 L22.8655867,16.515 C22.8655867,17.3355 23.5281827,18 24.3455099,18 C25.1620843,18 25.8243038,17.3355 25.8243038,16.515 L25.8243038,11.137875 L26.4759821,10.168125 L31.7466323,2.327025 C31.9070107,2.0899125 32,1.8035625 32,1.495875 C32,0.676725 31.3377804,0.012075 30.5200767,0.012075 Z" id="路径" fill="#FFFFFF"></path>
                        </g>
                    </g>
                    <text id="客服" font-family="PingFangSC-Regular, PingFang SC" font-size="18" font-weight="normal" fill="#333333">
                        <tspan x="64" y="33">客服</tspan>
                    </text>
                    <line x1="56" y1="14" x2="56" y2="38" id="直线" stroke-opacity="0.24" stroke="#000000" stroke-linecap="square"></line>
                    <g id="编组-2" transform="translate(110.000000, 8.000000)">
                        <g filter="url(#filter-5)" id="编组">
                            <g>
                                <path d="M19.2875584,0 L18.4584055,0 C11.1030168,0 4.76400913,5.50809141 4.09533743,12.593743 C1.42065065,13.5028454 -0.0771739554,15.9895081 0.00306664817,18.8772453 C0.217041591,25.3746541 1.98233487,25.2142243 5.78039011,25.2944392 L5.78039011,12.9680793 C5.86063071,7.59367942 11.5042198,1.60429847 19.2875584,1.60429847 C27.0174032,1.60429847 32.7679798,9.06428635 33.1959297,13.0215559 L33.1959297,25.1607476 C33.0087016,25.5618223 32.6877392,25.9628969 32.2062956,26.4709247 C32.6877392,24.064477 33.0889422,20.7221886 33.1156891,19.5724413 C33.1156891,19.3852732 33.0889422,18.155311 33.0087016,17.8344513 C32.4202705,13.2087241 29.5583556,8.12844557 22.9518793,6.79153018 C23.0321199,6.52414711 23.0856136,6.23002572 23.0856136,5.93590433 C23.0856136,4.14443771 21.4808015,2.70056909 19.4747865,2.70056909 C17.4687714,2.70056909 15.8907062,4.19791433 15.8907062,5.98938095 C15.8907062,6.28350234 15.9441999,6.57762372 16.0244405,6.8450068 C8.64230497,8.34235204 5.88737758,14.6525927 5.83388384,19.6526562 C5.96761818,21.4708612 6.4490618,25.0537944 6.77002422,26.8185227 C8.26784882,36.2304071 8.88302678,33.6902678 8.88302678,32.5672589 C8.88302678,32.0592311 8.66905184,30.5886241 8.58881123,28.8238958 C9.15049546,29.8666898 9.87266089,30.8025306 10.7285607,31.6581564 C12.5473477,33.4763614 14.8475783,34.6528469 17.335037,35.0806598 L17.335037,35.1341365 C17.3617839,35.6689026 18.1106962,36.0699772 18.8863554,35.9897623 L21.3738141,35.7491175 C22.0424858,35.6956409 22.6309169,35.267828 22.7646512,34.8132768 C24.6636788,34.3052489 26.4022252,33.3159315 27.873303,31.9522778 C28.4617341,31.6314181 29.0501652,31.2570818 29.6385962,30.8292689 C29.6118494,31.9522778 29.5851025,32.8881186 29.5851025,33.2624549 C29.5851025,34.3052489 30.5212429,33.1555017 31.5643707,29.1982321 C33.8111076,27.0056909 34.747248,25.2944392 34.7739949,25.2944392 C37.7963909,24.5725049 39,24.5992432 39,18.8237687 C38.9732531,16.0964613 37.7161503,13.6900136 35.1751979,12.7006962 C33.3029171,6.09633418 28.0337842,0.187168155 19.2875584,0 Z M22.7646512,34.2517723 L22.6844106,32.9148569 C22.6576637,32.3800908 21.9087514,31.9790161 21.1330923,32.0324928 L18.6188867,32.2463992 C17.8432275,32.3266141 17.2013027,32.8613803 17.2280496,33.3961465 L17.3082902,34.5191554 C13.3765006,33.7704828 10.1133827,31.0699137 8.58881123,27.4602421 C8.64230497,24.9468412 9.15049546,22.1660572 10.9960293,20.5617587 C12.9752976,18.850507 13.9381848,16.0429847 14.4196284,13.8771818 C14.8475783,15.7756016 15.8372124,18.0750961 18.0839493,18.5831239 C21.8820046,19.4654881 23.5670572,19.5189647 25.3056037,19.545703 C26.1347566,19.5724413 29.6118494,19.4120115 29.9863055,22.9147298 C29.9863055,22.9147298 29.8525712,25.9094203 29.7455837,28.7169426 L29.6653431,28.8773724 C27.258125,30.8827455 24.0485009,31.9255395 24.0485009,31.9255395 C23.6472978,32.0057544 23.3530823,32.5137823 23.4600698,32.9415952 C23.5670572,33.3694081 24.0752477,33.6367912 24.4497039,33.4763614 C24.4497039,33.4763614 24.7171726,33.3961465 25.1718693,33.2357166 C24.3962101,33.6635295 23.5938041,34.0111275 22.7646512,34.2517723 Z" id="形状" fill="#000000" fill-rule="nonzero"></path>
                            </g>
                        </g>
                        <path d="M22.7646512,34.2517723 L22.6844106,32.9148569 C22.6576637,32.3800908 21.9087514,31.9790161 21.1330923,32.0324928 L18.6188867,32.2463992 C17.8432275,32.3266141 17.2013027,32.8613803 17.2280496,33.3961465 L17.3082902,34.5191554 C13.3765006,33.7704828 10.1133827,31.0699137 8.58881123,27.4602421 C8.64230497,24.9468412 9.15049546,22.1660572 10.9960293,20.5617587 C12.9752976,18.850507 13.9381848,16.0429847 14.4196284,13.8771818 C14.8475783,15.7756016 15.8372124,18.0750961 18.0839493,18.5831239 C21.8820046,19.4654881 23.5670572,19.5189647 25.3056037,19.545703 C26.1347566,19.5724413 29.6118494,19.4120115 29.9863055,22.9147298 C29.9863055,22.9147298 29.8525712,25.9094203 29.7455837,28.7169426 L29.6653431,28.8773724 C27.258125,30.8827455 24.0485009,31.9255395 24.0485009,31.9255395 C23.6472978,32.0057544 23.3530823,32.5137823 23.4600698,32.9415952 C23.5670572,33.3694081 24.0752477,33.6367912 24.4497039,33.4763614 C24.4497039,33.4763614 24.7171726,33.3961465 25.1718693,33.2357166 C24.3962101,33.6635295 23.5938041,34.0111275 22.7646512,34.2517723 Z" id="路径" fill="#FFFFFF"></path>
                        <path d="M13.6232877,22.4360278 C12.8900081,22.4360278 12.2876712,23.0383022 12.2876712,23.7715057 C12.2876712,24.5047092 12.8900081,25.1069835 13.6232877,25.1069835 C14.3565673,25.1069835 14.9589041,24.5047092 14.9589041,23.7715057 C14.9589041,23.0383022 14.3565673,22.4360278 13.6232877,22.4360278 L13.6232877,22.4360278 Z" id="路径" fill="#795C98" fill-rule="nonzero"></path>
                        <path d="M23.5068493,23.7715057 C23.5068493,24.5090697 24.1048252,25.1069835 24.8424658,25.1069835 C25.5801063,25.1069835 26.1780822,24.5090697 26.1780822,23.7715057 C26.1780822,23.0339416 25.5801063,22.4360278 24.8424658,22.4360278 C24.1048252,22.4360278 23.5068493,23.0339416 23.5068493,23.7715057 L23.5068493,23.7715057 Z" id="路径" fill="#795C98" fill-rule="nonzero"></path>
                    </g>
                </g>
            </g>
        </g>
    </g>
</svg>