<?xml version="1.0" encoding="UTF-8"?>
<svg width="98px" height="98px" viewBox="0 0 98 98" version="1.1" xmlns="http://www.w3.org/2000/svg" xmlns:xlink="http://www.w3.org/1999/xlink">
    <title>icon_illustration_default</title>
    <defs>
        <filter color-interpolation-filters="auto" id="filter-1">
            <feColorMatrix in="SourceGraphic" type="matrix" values="0 0 0 0 0.200000 0 0 0 0 0.200000 0 0 0 0 0.200000 0 0 0 0.500000 0"></feColorMatrix>
        </filter>
        <filter color-interpolation-filters="auto" id="filter-2">
            <feColorMatrix in="SourceGraphic" type="matrix" values="0 0 0 0 0.200000 0 0 0 0 0.200000 0 0 0 0 0.200000 0 0 0 0.500000 0"></feColorMatrix>
        </filter>
        <linearGradient x1="50%" y1="0%" x2="50%" y2="100%" id="linearGradient-3">
            <stop stop-color="#FFFFFF" stop-opacity="0.5" offset="0%"></stop>
            <stop stop-color="#000000" stop-opacity="0.5" offset="100%"></stop>
        </linearGradient>
    </defs>
    <g id="搜索界面" stroke="none" stroke-width="1" fill="none" fill-rule="evenodd">
        <g id="搜索_模糊搜索-未搜索到相关产品" transform="translate(-213.000000, -184.000000)">
            <g id="icon/illustration/Default" transform="translate(213.000000, 184.000000)" filter="url(#filter-1)">
                <g filter="url(#filter-2)" id="编组">
                    <g transform="translate(16.000000, 10.000000)">
                        <path d="M1.21142936,68.1291725 C10.3053272,68.1941072 16.6508272,67.5052619 20.2479292,66.0626367 C25.6435822,63.8986988 36.1361838,53.4957111 43.2080648,53.0430586 C47.9226522,52.7412903 51.0716321,52.7412903 52.6550045,53.0430586 C53.0150833,58.1057614 53.2289939,62.5520584 53.2967363,66.3819498 C53.3644788,70.2118411 53.0099401,73.893661 52.2331203,77.4274093 L1.21142936,76.8947326 L1.21142936,68.1291725 Z" id="路径-4" fill="url(#linearGradient-3)" opacity="0.130010696"></path>
                        <path d="M51.9025821,11.8479482 C54.6692511,11.8009776 56.9641739,13.9392496 57.1379466,16.6788851 L57.1477329,16.922138 L57.146436,17.1253061 L55.7117189,76.0226394 C56.9661875,75.2979704 58.0962515,74.7961032 59.1055066,74.5180009 C60.1763835,74.2229185 61.6623599,74.0871558 63.5726182,74.1057298 L64.4844358,74.1252431 L64.8094162,74.1367333 L60.9925543,18.7879296 C60.9732101,18.5075292 61.15937,18.260395 61.422743,18.1936685 L61.5248767,18.1773901 C61.8055484,18.1580646 62.0529217,18.3440445 62.1197128,18.6071629 L62.136007,18.7091979 L65.9986124,74.6989522 C66.0222587,75.0417142 65.7405066,75.3279494 65.3970649,75.310071 L64.4643537,75.2702951 C62.2080759,75.1966804 60.5186762,75.3164137 59.4102607,75.6218399 C58.1483646,75.969558 56.6262682,76.7295992 54.8534595,77.9045048 C54.6950178,78.00951 54.5034117,78.0254867 54.3377346,77.9643821 C54.276832,77.9766178 54.2132435,77.9862618 54.1486297,77.9923303 L53.9858284,77.999938 L4.01108346,77.999938 C1.86940112,77.999938 0.119707692,76.3232562 0.00544111067,74.2121288 L0,73.9199795 L1.67781961,17.6132708 C1.75731327,14.9456958 3.85795719,12.795253 6.49910091,12.6246987 L6.74824644,12.6145543 L15.31717,12.5079945 C15.6336503,12.5040589 15.8934018,12.7571783 15.8973412,13.0733527 C15.9008429,13.3543965 15.7010428,13.590661 15.4343254,13.6424586 L15.331436,13.6529631 L6.76511684,13.7594846 C4.69666292,13.7946014 3.00741466,15.39166 2.83598484,17.4275827 L2.8234772,17.6473454 L1.337,67.556 L2.54864126,67.5607267 C2.76740136,67.5604722 2.98444814,67.5597518 3.19978104,67.5585656 L4.47120736,67.545863 L5.70147363,67.5220001 C5.90308651,67.5170938 6.10298326,67.5117232 6.30116333,67.5058886 L7.46963907,67.4653153 C7.66095016,67.4576259 7.85054345,67.4494733 8.03841838,67.4408576 L9.14504305,67.3836102 L10.2104001,67.3152669 C14.5633759,67.0074087 17.8409723,66.4110129 20.0344316,65.5313215 C20.6777426,65.2733202 21.4212818,64.8835092 22.3060224,64.3446737 L22.9172177,63.9631833 L23.5729483,63.536404 C23.6860979,63.4614371 23.8012155,63.3845359 23.9183573,63.3056768 L24.7694167,62.7234382 L25.8633013,61.9540682 L29.5926193,59.2753165 L30.9280629,58.3320777 L31.7455791,57.7665634 L32.5217357,57.2407948 L33.2709872,56.745426 C37.3364422,54.0925441 40.4979298,52.6428247 43.171423,52.4717014 L44.5975349,52.3866854 L45.4866158,52.3409542 L46.728109,52.2888438 L47.8594833,52.2565975 L48.5527971,52.2461803 C48.6642971,52.2451847 48.773773,52.2445597 48.8812277,52.2443059 L49.5017268,52.2472422 L50.0738638,52.2591144 C50.1651979,52.2618393 50.2545229,52.2649375 50.3418418,52.2684098 L50.8417076,52.2937362 L51.2935737,52.3280655 L51.697585,52.3714246 C51.9510065,52.4033466 52.1726215,52.4413063 52.3626232,52.4853396 C52.6709409,52.5567929 52.8629014,52.8644166 52.7913789,53.1724363 C52.7198565,53.480456 52.4119352,53.6722309 52.1036175,53.6007776 C51.9767154,53.5713677 51.831077,53.5450003 51.666784,53.5216903 L51.3133491,53.4791516 C51.2503058,53.4727427 51.1851958,53.4666747 51.1180222,53.4609481 L50.6902402,53.4306896 L50.2130746,53.4086516 L49.6866704,53.3948608 L49.1111725,53.3893442 L48.4867259,53.3921285 L47.4585941,53.4119279 L46.3211429,53.4505555 L45.0748614,53.5081017 L43.7202388,53.5846573 C43.5637244,53.5942229 43.4052127,53.6041422 43.2447067,53.6144158 C40.9173461,53.763384 38.0393627,55.0477833 34.3450289,57.414857 L33.5306023,57.9452917 L32.7790731,58.4484505 C32.6513144,58.5350032 32.5221056,58.6230306 32.3911497,58.7127251 L31.5820724,59.2724348 L30.0519526,60.3548165 L26.8361511,62.6672821 L25.6816614,63.4839668 L24.9227097,64.0085156 L24.5524348,64.2595981 L23.8480503,64.7260597 L23.1891411,65.1460091 L22.5724131,65.5207571 C22.3735012,65.6382851 22.1810705,65.7484981 21.9945718,65.8516145 L21.4523232,66.1398922 C21.1019563,66.3181755 20.7731216,66.4689461 20.4614268,66.5939519 C18.4348588,67.4067113 15.5850658,67.9828178 11.9060797,68.3258439 L10.8821569,68.4136203 C10.5339934,68.4409546 10.1789727,68.4663653 9.81709011,68.4898551 L8.71085254,68.5545644 C8.3352419,68.5742151 7.95276496,68.5919475 7.56341726,68.6077643 L6.37475735,68.649471 C5.97166363,68.6614594 5.56169464,68.671535 5.14484592,68.6797004 L3.87365606,68.6984687 C3.44304338,68.7028164 3.00554647,68.7052567 2.56116086,68.7057921 L1.303,68.701 L1.14567047,73.9922375 C1.14567047,75.5099919 2.32798106,76.7518698 3.82268177,76.8487916 L4.01108346,76.8548807 L53.9858284,76.8548807 C54.2623384,76.8548807 54.4939682,76.6589929 54.5473424,76.3972611 L54.5587415,76.2962792 L56.0013213,17.0338513 L56.0016521,16.9319638 C55.9648944,14.7925461 54.2570021,13.0733014 52.1402745,12.9950626 L51.9198961,12.9928728 L41.5922872,13.1292904 C41.2758101,13.1334707 41.0158626,12.8805522 41.0116782,12.564381 C41.0079587,12.2833399 41.2075757,12.046921 41.4742529,11.9949172 L41.5771342,11.9843332 L51.9025821,11.8479482 Z M28.5792251,0 C33.2868498,0 36.818104,3.54120635 39.2217334,10.5585632 L39.4841653,11.3525713 L39.7373313,12.17517 L39.9812461,13.0263392 C40.0211285,13.1705805 40.060626,13.3160115 40.099739,13.4626316 L40.329805,14.3566196 C40.3673811,14.5079949 40.4045733,14.6605586 40.4413818,14.8143103 L40.6576324,15.7510724 C40.6929078,15.9095743 40.7278001,16.0692632 40.7623098,16.230139 L40.9647784,17.2096306 C40.9977586,17.3752516 41.0303568,17.5420584 41.0625732,17.7100508 L41.2512932,18.7322274 C41.2819839,18.90496 41.3122934,19.0788773 41.3422222,19.2539788 L41.517227,20.3187957 L41.6831071,21.4120146 C41.7099942,21.5965835 41.7365017,21.782335 41.76263,21.9692686 L41.9148506,23.1050535 L42.0030122,23.821318 C43.0214514,24.0544989 43.7811474,24.9654137 43.7811474,26.0535935 C43.7811474,27.3183888 42.7548362,28.343708 41.4888171,28.343708 C40.2227979,28.343708 39.1964867,27.3183888 39.1964867,26.0535935 C39.1964867,25.0091126 39.8963924,24.1279455 40.8532113,23.8526565 L40.9196505,24.4028244 C40.8732538,24.0083659 40.8253587,23.6189735 40.7759682,23.2346436 L40.6233128,22.0968376 L40.4617009,20.9893841 L40.2911492,19.912261 C40.2619798,19.7352667 40.2324386,19.5595353 40.2025172,19.3850663 L40.0185957,18.3533971 C39.8302134,17.336869 39.6284836,16.3657533 39.4134811,15.4399501 L39.1940572,14.5292473 L38.9658014,13.6487308 L38.7287304,12.7983783 C36.4749817,5.0024513 33.0715477,1.14505728 28.5792251,1.14505728 C24.5449772,1.14505728 21.4688516,4.26119977 19.3966219,10.5558749 L19.1574645,11.3110932 C19.0792911,11.5677233 19.0026643,11.8292454 18.9275869,12.0956631 L18.7070055,12.9096072 C18.3111381,14.4287781 17.962223,16.0961576 17.6607195,17.9123717 L17.5009678,18.9177982 C17.4751271,19.0878306 17.449679,19.259094 17.4246236,19.4315888 L17.2790089,20.481339 C17.2555265,20.6587615 17.2324376,20.8374164 17.2097426,21.0173042 L17.0783021,22.1114289 L16.9563319,23.2351648 L16.8967058,23.8492162 C17.8597093,24.1205384 18.5655132,25.004721 18.5655132,26.0535935 C18.5655132,27.3183888 17.5392019,28.343708 16.2731828,28.343708 C15.0071637,28.343708 13.9808524,27.3183888 13.9808524,26.0535935 C13.9808524,24.9696867 14.734594,24.0616555 15.7470023,23.8240962 L15.8146985,23.1328187 L15.9364673,22.0098174 C15.9575619,21.8249566 15.9790566,21.6412493 16.0009517,21.4586957 L16.1371295,20.3772233 L16.2829319,19.323462 C16.4084482,18.4568795 16.5440056,17.6191839 16.6896426,16.8104278 L16.8692477,15.8538148 C18.9289203,5.32682748 22.8012688,0 28.5792251,0 Z M16.2731828,24.9085362 C15.6401732,24.9085362 15.1270176,25.4211958 15.1270176,26.0535935 C15.1270176,26.6859912 15.6401732,27.1986508 16.2731828,27.1986508 C16.9061923,27.1986508 17.419348,26.6859912 17.419348,26.0535935 C17.419348,25.4211958 16.9061923,24.9085362 16.2731828,24.9085362 Z M41.4888171,24.9085362 C40.8558075,24.9085362 40.3426519,25.4211958 40.3426519,26.0535935 C40.3426519,26.6859912 40.8558075,27.1986508 41.4888171,27.1986508 C42.1218266,27.1986508 42.6349822,26.6859912 42.6349822,26.0535935 C42.6349822,25.4211958 42.1218266,24.9085362 41.4888171,24.9085362 Z M36.2884591,12.1324949 C36.6049304,12.1278985 36.8652109,12.380475 36.8698736,12.6966405 C36.8739014,12.9776764 36.6745961,13.2143575 36.4079876,13.266712 L36.3051204,13.2774312 L20.4416905,13.5078323 C20.1252192,13.5124287 19.8649387,13.2598522 19.860276,12.9436867 C19.8562481,12.6626508 20.0555535,12.4259697 20.322162,12.3736152 L20.4250292,12.362896 L36.2884591,12.1324949 Z" id="形状结合" fill="#333333" fill-rule="nonzero"></path>
                    </g>
                </g>
            </g>
        </g>
    </g>
</svg>