<?xml version="1.0" encoding="UTF-8"?>
<svg width="48px" height="48px" viewBox="0 0 48 48" version="1.1" xmlns="http://www.w3.org/2000/svg" xmlns:xlink="http://www.w3.org/1999/xlink">
    <title>相册</title>
    <defs>
        <filter color-interpolation-filters="auto" id="filter-1">
            <feColorMatrix in="SourceGraphic" type="matrix" values="0 0 0 0 0.474510 0 0 0 0 0.360784 0 0 0 0 0.596078 0 0 0 1.000000 0"></feColorMatrix>
        </filter>
    </defs>
    <g id="消息" stroke="none" stroke-width="1" fill="none" fill-rule="evenodd">
        <g id="消息-会话消息-客服悬浮窗" transform="translate(-670.000000, -960.000000)">
            <g id="编组" transform="translate(0.000000, 930.000000)">
                <g id="相册" transform="translate(670.000000, 30.000000)" filter="url(#filter-1)">
                    <g>
                        <rect id="矩形" fill="#000000" fill-rule="nonzero" opacity="0" x="0" y="0" width="48" height="48"></rect>
                        <path d="M41.0912727,40.3636364 C41.392519,40.3636364 41.6367273,40.119428 41.6367273,39.8181818 L41.6367273,8.1818182 C41.6367273,7.88057197 41.392519,7.63636364 41.0912727,7.63636364 L7.27309092,7.63636364 C7.12842738,7.63636364 6.98968888,7.69383101 6.8873963,7.79612358 C6.78510373,7.89841616 6.72763636,8.03715466 6.72763636,8.1818182 L6.72763636,39.8181818 C6.72763636,40.119428 6.97184469,40.3636364 7.27309092,40.3636364 L41.0912727,40.3636364 L41.0912727,40.3636364 Z M41.0912727,43.6363636 L7.27309092,43.6363636 C6.26044613,43.6363636 5.28927663,43.2340921 4.57322863,42.5180441 C3.85718064,41.8019961 3.45490908,40.8308266 3.45490908,39.8181818 L3.45490908,8.1818182 C3.45490908,7.16917341 3.85718064,6.19800391 4.57322863,5.48195592 C5.28927663,4.76590792 6.26044613,4.36363636 7.27309092,4.36363636 L41.0912727,4.36363636 C42.1039175,4.36363636 43.075087,4.76590792 43.791135,5.48195592 C44.507183,6.19800391 44.9094546,7.16917341 44.9094546,8.1818182 L44.9094546,39.8181818 C44.9094546,40.8308266 44.507183,41.8019961 43.791135,42.5180441 C43.075087,43.2340921 42.1039175,43.6363636 41.0912727,43.6363636 Z" id="形状" fill="#000000" fill-rule="nonzero"></path>
                        <path d="M6.05890908,32.8221818 L3.84654544,30.4112727 L12.4047273,22.56 C13.9237763,21.1660846 16.2750693,21.2298289 17.7163636,22.704 L25.1541818,30.3130909 C25.3561183,30.5199984 25.6844183,30.5333984 25.9025454,30.3436364 L30.3152727,26.5090909 C31.7690767,25.2459548 33.93601,25.2632603 35.3694546,26.5494546 L44.352,34.6101818 L42.1669091,37.0461818 L33.1832727,28.9843636 C32.9785621,28.8012603 32.669639,28.7989235 32.4621818,28.9789091 L28.0494546,32.8134546 C26.523342,34.1400025 24.2276364,34.04672 22.8141818,32.6007273 L15.3752727,24.9916364 C15.169489,24.7813951 14.8340539,24.7722249 14.6170909,24.9709091 L6.05890908,32.8221818 L6.05890908,32.8221818 Z" id="路径" fill="#000000" fill-rule="nonzero"></path>
                        <path d="M29.4545454,15.8181818 C29.4545454,17.3244129 30.675587,18.5454545 32.1818182,18.5454545 C33.6880493,18.5454545 34.9090909,17.3244129 34.9090909,15.8181818 C34.9090909,14.3119507 33.6880493,13.0909091 32.1818182,13.0909091 C30.675587,13.0909091 29.4545454,14.3119507 29.4545454,15.8181818 L29.4545454,15.8181818 Z" id="路径" fill="#000000" fill-rule="nonzero"></path>
                    </g>
                </g>
            </g>
        </g>
    </g>
</svg>